HIERARCHY
ROOT Hips
{
	OFFSET -14.64140 90.27770 -84.91600
	CHANNELS 6 Xposition Yposition Zposition Zrotation Xrotation Yrotation
	JOINT Spine
	{
		OFFSET 0.00000 13.20850 -1.60436
		CHANNELS 3 Zrotation Xrotation Yrotation
		JOINT Spine1
		{
			OFFSET 0.00000 8.61716 0.00000
			CHANNELS 3 Zrotation Xrotation Yrotation
			JOINT Spine2
			{
				OFFSET 0.00000 8.61717 0.00000
				CHANNELS 3 Zrotation Xrotation Yrotation
				JOINT Spine3
				{
					OFFSET 0.00000 8.61717 0.00000
					CHANNELS 3 Zrotation Xrotation Yrotation
					JOINT Neck
					{
						OFFSET 0.00000 11.07920 1.10792
						CHANNELS 3 Zrotation Xrotation Yrotation
						JOINT Neck1
						{
							OFFSET 0.00000 7.08032 0.00000
							CHANNELS 3 Zrotation Xrotation Yrotation
							JOINT Head
							{
								OFFSET 0.00000 7.08031 0.00000
								CHANNELS 3 Zrotation Xrotation Yrotation
								End site
								{
									OFFSET 0.00000 0.00000 0.00000
								}
							}
						}
					}
					JOINT RightShoulder
					{
						OFFSET -0.01000 7.91373 5.19711
						CHANNELS 3 Zrotation Xrotation Yrotation
						JOINT RightArm
						{
							OFFSET -18.41580 0.00000 0.00000
							CHANNELS 3 Zrotation Xrotation Yrotation
							JOINT RightForeArm
							{
								OFFSET -29.11090 0.00000 0.00000
								CHANNELS 3 Zrotation Xrotation Yrotation
								JOINT RightHand
								{
									OFFSET -24.65040 0.00000 0.00000
									CHANNELS 3 Zrotation Xrotation Yrotation
									JOINT RightHandThumb1
									{
										OFFSET -5.35114 -0.85590 3.97906
										CHANNELS 3 Zrotation Xrotation Yrotation
										JOINT RightHandThumb2
										{
											OFFSET -4.52789 0.00000 0.00000
											CHANNELS 3 Zrotation Xrotation Yrotation
											JOINT RightHandThumb3
											{
												OFFSET -2.46976 0.00000 0.00000
												CHANNELS 3 Zrotation Xrotation Yrotation
												End site
												{
													OFFSET 0.00000 0.00000 0.00000
												}
											}
										}
									}
									JOINT RightHandIndex1
									{
										OFFSET -14.26970 0.00000 2.88139
										CHANNELS 3 Zrotation Xrotation Yrotation
										JOINT RightHandIndex2
										{
											OFFSET -5.48836 0.00000 0.00000
											CHANNELS 3 Zrotation Xrotation Yrotation
											JOINT RightHandIndex3
											{
												OFFSET -3.01859 0.00000 0.00000
												CHANNELS 3 Zrotation Xrotation Yrotation
												End site
												{
													OFFSET 0.00000 0.00000 0.00000
												}
											}
										}
									}
									JOINT RightHandMiddle1
									{
										OFFSET -14.26970 0.00000 -0.09147
										CHANNELS 3 Zrotation Xrotation Yrotation
										JOINT RightHandMiddle2
										{
											OFFSET -6.17441 0.00000 0.00000
											CHANNELS 3 Zrotation Xrotation Yrotation
											JOINT RightHandMiddle3
											{
												OFFSET -3.56743 0.00000 0.00000
												CHANNELS 3 Zrotation Xrotation Yrotation
												End site
												{
													OFFSET 0.00000 0.00000 0.00000
												}
											}
										}
									}
									JOINT RightHandRing1
									{
										OFFSET -12.69180 0.00000 -3.06433
										CHANNELS 3 Zrotation Xrotation Yrotation
										JOINT RightHandRing2
										{
											OFFSET -5.62556 0.00000 0.00000
											CHANNELS 3 Zrotation Xrotation Yrotation
											JOINT RightHandRing3
											{
												OFFSET -3.56744 0.00000 0.00000
												CHANNELS 3 Zrotation Xrotation Yrotation
												End site
												{
													OFFSET 0.00000 0.00000 0.00000
												}
											}
										}
									}
									JOINT RightHandPinky1
									{
										OFFSET -11.11390 0.00000 -6.03719
										CHANNELS 3 Zrotation Xrotation Yrotation
										JOINT RightHandPinky2
										{
											OFFSET -4.52789 0.00000 0.00000
											CHANNELS 3 Zrotation Xrotation Yrotation
											JOINT RightHandPinky3
											{
												OFFSET -2.46976 0.00000 0.00000
												CHANNELS 3 Zrotation Xrotation Yrotation
												End site
												{
													OFFSET 0.00000 0.00000 0.00000
												}
											}
										}
									}
								}
							}
						}
					}
					JOINT LeftShoulder
					{
						OFFSET 0.01000 7.91373 5.19711
						CHANNELS 3 Zrotation Xrotation Yrotation
						JOINT LeftArm
						{
							OFFSET 18.41580 0.00000 0.00000
							CHANNELS 3 Zrotation Xrotation Yrotation
							JOINT LeftForeArm
							{
								OFFSET 29.11090 0.00000 0.00000
								CHANNELS 3 Zrotation Xrotation Yrotation
								JOINT LeftHand
								{
									OFFSET 24.65040 0.00000 0.00000
									CHANNELS 3 Zrotation Xrotation Yrotation
									JOINT LeftHandThumb1
									{
										OFFSET 5.35114 -0.85590 3.97906
										CHANNELS 3 Zrotation Xrotation Yrotation
										JOINT LeftHandThumb2
										{
											OFFSET 4.52789 0.00000 0.00000
											CHANNELS 3 Zrotation Xrotation Yrotation
											JOINT LeftHandThumb3
											{
												OFFSET 2.46977 0.00000 0.00000
												CHANNELS 3 Zrotation Xrotation Yrotation
												End site
												{
													OFFSET 0.00000 0.00000 0.00000
												}
											}
										}
									}
									JOINT LeftHandIndex1
									{
										OFFSET 14.26970 0.00000 2.88139
										CHANNELS 3 Zrotation Xrotation Yrotation
										JOINT LeftHandIndex2
										{
											OFFSET 5.48836 0.00000 0.00000
											CHANNELS 3 Zrotation Xrotation Yrotation
											JOINT LeftHandIndex3
											{
												OFFSET 3.01859 0.00000 0.00000
												CHANNELS 3 Zrotation Xrotation Yrotation
												End site
												{
													OFFSET 0.00000 0.00000 0.00000
												}
											}
										}
									}
									JOINT LeftHandMiddle1
									{
										OFFSET 14.26970 0.00000 -0.09147
										CHANNELS 3 Zrotation Xrotation Yrotation
										JOINT LeftHandMiddle2
										{
											OFFSET 6.17440 0.00000 0.00000
											CHANNELS 3 Zrotation Xrotation Yrotation
											JOINT LeftHandMiddle3
											{
												OFFSET 3.56744 0.00000 0.00000
												CHANNELS 3 Zrotation Xrotation Yrotation
												End site
												{
													OFFSET 0.00000 0.00000 0.00000
												}
											}
										}
									}
									JOINT LeftHandRing1
									{
										OFFSET 12.69180 0.00000 -3.06433
										CHANNELS 3 Zrotation Xrotation Yrotation
										JOINT LeftHandRing2
										{
											OFFSET 5.62556 0.00000 0.00000
											CHANNELS 3 Zrotation Xrotation Yrotation
											JOINT LeftHandRing3
											{
												OFFSET 3.56744 0.00000 0.00000
												CHANNELS 3 Zrotation Xrotation Yrotation
												End site
												{
													OFFSET 0.00000 0.00000 0.00000
												}
											}
										}
									}
									JOINT LeftHandPinky1
									{
										OFFSET 11.11390 0.00000 -6.03719
										CHANNELS 3 Zrotation Xrotation Yrotation
										JOINT LeftHandPinky2
										{
											OFFSET 4.52789 0.00000 0.00000
											CHANNELS 3 Zrotation Xrotation Yrotation
											JOINT LeftHandPinky3
											{
												OFFSET 2.46976 0.00000 0.00000
												CHANNELS 3 Zrotation Xrotation Yrotation
												End site
												{
													OFFSET 0.00000 0.00000 0.00000
												}
											}
										}
									}
								}
							}
						}
					}
					JOINT pCube4
					{
						OFFSET 0.00000 10.91090 1.10792
						CHANNELS 3 Zrotation Xrotation Yrotation
						End site
						{
							OFFSET 0.00000 0.00000 0.00000
						}
					}
				}
			}
		}
	}
	JOINT RightUpLeg
	{
		OFFSET -9.98441 0.00000 0.00000
		CHANNELS 3 Zrotation Xrotation Yrotation
		JOINT RightLeg
		{
			OFFSET 0.00000 -42.11790 0.00000
			CHANNELS 3 Zrotation Xrotation Yrotation
			JOINT RightFoot
			{
				OFFSET 0.00000 -45.00020 -0.00001
				CHANNELS 3 Zrotation Xrotation Yrotation
				JOINT RightForeFoot
				{
					OFFSET 0.00000 -3.74820 0.00000
					CHANNELS 3 Zrotation Xrotation Yrotation
					JOINT RightToeBase
					{
						OFFSET 0.00000 0.06325 14.43120
						CHANNELS 3 Zrotation Xrotation Yrotation
						End site
						{
							OFFSET 0.00000 0.00000 0.00000
						}
					}
				}
			}
		}
	}
	JOINT LeftUpLeg
	{
		OFFSET 9.98441 0.00000 0.00000
		CHANNELS 3 Zrotation Xrotation Yrotation
		JOINT LeftLeg
		{
			OFFSET 0.00000 -42.11800 0.00000
			CHANNELS 3 Zrotation Xrotation Yrotation
			JOINT LeftFoot
			{
				OFFSET 0.00000 -45.00070 0.00000
				CHANNELS 3 Zrotation Xrotation Yrotation
				JOINT LeftForeFoot
				{
					OFFSET 0.00000 -3.74824 0.00000
					CHANNELS 3 Zrotation Xrotation Yrotation
					JOINT LeftToeBase
					{
						OFFSET 0.00000 0.06325 14.43110
						CHANNELS 3 Zrotation Xrotation Yrotation
						End site
						{
							OFFSET 0.00000 0.00000 0.00000
						}
					}
				}
			}
		}
	}
}
MOTION
Frames: 4
Frame Time: 0.050000
-0.023251696488297113 -0.030375803675476078 0.003134496676556163 0.009763829723556152 -0.04020136319614544 0.031237052194956417 5.107753047755382 6.640412666603727 -1.8679538326189085 -1.0531412947111065 4.1589415357803805 0.3884019981951574 -0.6469288059688723 -0.5434038671732566 0.9966070144700415 -0.09988421937894128 0.07453294766726776 -0.2336912076128232 -0.42143820113917435 14.035210300292256 -1.4025254780316763 -0.360747152037464 -1.8141330933958515 -4.018242765250327 0.3420846686940916 -19.6910782301937 -0.3281631973144644 -12.63652204896794 3.9619969556850556 -17.426035198232583 77.3647234370244 -6.545440162274668 15.289701841910096 10.208624787542771 -5.026715498931579 70.68098458515242 2.1310588326774718 0.11758801795405824 0.04862000886250206 4.564288121208475 -0.14136874741431135 -1.5954015750660395 0.002827822099925348 0.022236622962190377 -56.190810754761706 -0.006065849809380353 -0.023147980286101086 -56.27582740277922 -38.78905967395441 0.023680274221366173 -0.002168038027038176 0.038131764538414006 -0.01605432727650012 0.018088140868305947 0.041038488013895785 -0.01402435198381385 -0.008997660823439483 -36.705216619029315 0.023738715373271158 0.04504312610034841 -0.008417953962349092 -0.004254141053067619 0.006619213412884448 0.03105572229525546 -0.012312913766805555 -0.04163833529758117 -19.76264801341909 -0.046482631213647 -0.0018139649143836699 -0.030168704578891908 -0.015017021820012053 0.04101730852565262 0.02621065450025502 0.049580652574882665 0.041262141565850875 24.083875730446206 -0.019554283847135808 -0.018514156849558407 28.889122860805998 0.04626573938622911 -0.011429640400383686 28.826651251298035 -0.021584262052059665 0.007430956923594779 12.094743671704745 2.655545273499288 14.938189919018345 -71.96440588671362 7.625141153777138 -20.73867651503678 -3.8946878331618793 -7.330905884130349 -62.019180425855694 -4.478719629320571 2.4084859216876664 -3.631261552440067 -0.4592866750692554 0.07463335996364687 -8.150819988395815 0.009578107660721839 -0.018986242692412156 44.54303544782554 -0.03930616971694557 -0.029078273203201763 44.552351252181154 12.456271281019491 0.010473310184618025 -0.002411849873392674 0.017670114903375375 0.0374342189234563 0.009508718935527872 0.0004398144904446142 -0.004513859125471039 -0.04372751254460344 11.129145519772006 0.006614669700683728 -0.04916739495798173 0.0288743865240644 -0.006863844735705963 -0.006144072713498648 0.02533395212156718 0.038673550009841885 -0.0187540627548728 4.802637963589053 0.04700676497511113 0.005835877702869663 0.03058740348278418 0.033197848075494286 0.046982181464198046 -0.043757588936602435 0.009790565989793143 -0.00198873544787889 -5.565991707958002 0.03660422719352884 0.04590188737431097 -6.710738106731321 -0.019293140805126483 0.030118953548639846 -6.753149728033597 -0.048030514042024144 -0.0019501343525108483 -0.03009924277674524 -0.03426809858558345 0.0470267944073858 8.08903772547312 3.4478540964774314 -19.22473436567226 -0.021084370733615722 10.384843707070797 -0.02842184404914808 -5.592132634610633 -15.674353682608643 3.1886764262527767 -0.04551441730743353 0.03704983374419142 0.04714769988758959 -0.01995033098174222 4.686603861178916 0.011953532005159735 12.416279675050133 -8.220758563543352 6.8682750879487235 -0.04539167826142113 46.42675377745676 0.027884786616456884 -4.3567954831358255 -14.710312769909693 -3.8015565683503607 -0.001847067922827736 0.022251516395952405 0.03368397437566899 -0.0213513709704048 -10.735470587888049 -0.04612544805898819 
0.04857464378193733 -0.020989497618743472 -0.024241726597125014 -0.04724194295028874 0.025056961981823157 0.02318376633125623 5.072548372114089 6.659797487595434 -1.8643498126557065 -1.0238164667366598 4.222096608377247 0.4039415124532698 -0.6936826062356302 -0.5134425579245541 1.0489624385966532 0.053217416854098275 0.08721285706480646 -0.2621277240724482 -0.4245206388285135 14.021887408893331 -1.536535558162739 -0.40606500120551414 -1.8655472593099944 -4.358690322897281 0.24132744760114902 -19.681548583284155 -0.40593387265637026 -12.40019042172626 3.8895236490265424 -17.530691248338094 76.06917652218755 -5.365013412258856 14.778137103343202 11.660030788456137 -4.892749845127395 71.65629020766637 2.768370780743845 0.10073361077547255 -0.052205343443399735 4.5722019827444855 -0.10798015034223157 -1.5702366727886443 0.0227056481996965 0.024585925055034347 -56.200914216835145 -0.006858592556490237 0.00041136907533615645 -56.265500362800864 -38.766170112399685 -0.03693690495485939 -0.04547331816753518 0.023921570464386158 -0.013482941457278836 0.04970171856067008 0.0034399121666628396 0.02593967916302391 0.020126823337324726 -36.71597898550926 0.0327570661315537 -0.015371530685795193 -0.01753147375257126 -0.03266753711159214 -0.03533787505176211 -0.02111412389206881 -0.002847144275407893 0.009440478521163297 -19.77111575258775 0.04354704611373989 -0.04488668526600022 0.0232343068541377 -0.02599959635674136 0.04637811260328882 -0.008684825087608443 -0.009536545274527833 -0.00965812930047333 24.07079780464072 0.04274097977959755 0.004412499553208145 28.88050841145861 -0.029069355733403236 0.0236466979703594 28.887117977966437 -0.04047973834284134 -0.03232722177240726 11.92351885135002 2.548453349809281 14.97009455010608 -71.08093478859146 7.9141722032166655 -20.19265415249036 -5.101621070181453 -7.053821911705912 -62.99664612080874 -5.186000834361106 2.188628329523746 -3.4819534394919955 -0.46573211429152706 0.07369020432651181 -8.10621845527081 0.014766075171978536 -0.01960006534120404 44.58370307793066 0.015004417872542834 -0.0473693544282684 44.57334164288508 12.426480038436651 -0.024685900200465603 0.012246938677367104 0.030442613404917763 -0.03732216640622432 0.0013687939849033686 -0.04445926258867069 0.004610107853046524 -0.009475715096953621 11.12566183550086 -0.03822631315135725 0.008150667037604751 0.020317164375369883 -0.02260370087555952 0.012017938873534632 0.040710535364391245 -0.017494870322027 -0.049673179795335344 4.816469181425446 -0.015305428541220818 -0.014188071455057596 0.017630954242579017 0.02989497237229994 -0.0021660058167156265 0.037222646492002305 -0.02789602741000099 -0.04175432187508228 -5.611604317283393 0.0031279388290734755 -0.037619336307881675 -6.742882779621135 -0.002403556160268332 0.010103658899085073 -6.69977241867792 -0.039154030168970164 -0.020132209415006905 0.01233286981941315 -0.004951070069625659 -0.03835551774210835 8.005623889356292 3.462957371825756 -19.18958158017697 -0.041081962321255515 10.362784355332355 -0.02581182539009143 -5.59367445858406 -15.640753765630313 3.216022614258052 -0.00580873947520977 0.0008061831746101136 -0.0332317964849565 0.03040987166178211 4.716754251943334 0.031887919467796566 12.453826361420289 -8.194594787923068 6.879222236177178 0.039967835230943785 46.34184594844424 -0.04031734818294986 -4.348315066695645 -14.790039894779596 -3.79226711312823 -0.013575377502895846 0.0354606418472325 -0.048211919270599 0.020900583028351048 -10.76619214617249 0.0015304257196446052 
0.02252892696689608 -0.016780452649347712 0.027537153141049122 0.03167973216931199 -0.008570321082718206 -0.047801655323857634 5.123396633436573 6.725865492161215 -1.8634930254419846 -1.0104607325783879 4.262873626908442 0.4665415218172005 -0.6049063845470168 -0.4828737497206498 1.0575231884255214 0.1690193942231053 0.11083695616628636 -0.2755260720915456 -0.29683217316385885 14.094022018479501 -1.7937403039587188 -0.43046944322795605 -1.8571475177703205 -5.119578277785947 0.3002311148785806 -19.671558921488003 -0.4743815974903987 -12.301357048117412 3.7353722221416255 -17.626077587961287 74.84142744888038 -4.138133683324298 14.661006403778732 12.422157227397244 -5.272415646535015 72.13426582870028 3.311652690789704 0.0893849709592881 -0.2337021237232563 4.516677660497753 -0.09205572251611652 -1.5920450661178076 0.03342341773434281 -0.02327590275900377 -56.22653471536529 -0.035715728826946555 -0.0014358428362259668 -56.22433248277131 -38.793460505668335 -0.01052466326802989 0.004502035611551544 0.02737611377133061 0.02052734892019593 -0.026746991668745286 0.012313949730362548 -0.02013162118723347 -0.0020274955031633186 -36.672380801570846 0.0190485376105491 -0.00983002159514185 0.017397873056047678 -0.01098736910998263 -0.004584952216603383 -0.003959704491996255 0.007913896018312883 -0.00846927533520418 -19.73042863533256 -0.033957643053238534 -0.046656952160145454 -0.01648859837816585 -0.015312207283824281 -0.0054025858704359 -0.04125743531721105 -0.01557003745333702 -0.015668053013918166 24.083196086795862 0.04611110367745627 -0.024152640405407624 28.83412323716496 0.005310024091314755 0.0011084737714359047 28.85697716466124 -0.01484467937298715 0.024308453859878645 11.576556803955448 2.4972143989151876 15.06233777291679 -70.56745850946632 8.024593694253186 -19.598587136988964 -6.154758172656448 -7.636177917629946 -63.53785262020271 -5.788846834147013 1.9348140799163263 -3.1579162864517856 -0.48520012359066883 0.05288933878519655 -8.163199942520055 0.02943979625308053 0.017306809268369163 44.609578742253674 -0.013224778530436116 0.03923181050364645 44.53577452661278 12.426525927759092 0.016998766876581136 0.027336341549119274 0.03945424616102042 -0.016846534531107748 -0.0023299108960223537 -0.035172191473455405 0.024894849641336463 0.02049015971951664 11.087393061519318 -0.00898205573147053 0.031868034159773004 -0.048653566721054156 -0.010283911548988525 0.021801678488128147 -0.013535404876370097 -0.01870648793043738 -0.011340017513753959 4.821211005778331 0.036817825313994516 0.00680669016410693 -0.03807204792381529 0.017443188609667506 0.020097315877121408 -0.0017014992405642404 0.047651860965467474 0.0017128233689339479 -5.631591640583531 0.03641698118275776 0.024227962056861764 -6.733949778436874 -0.03330379174796955 0.020368776749217908 -6.748540563156576 -0.040445489973031885 0.004613287546044525 -0.020708772160497765 -0.029957406272234654 0.04769270274802882 8.040294482393081 3.4947501553345273 -19.264743571454822 0.03142483228886292 10.393582726910688 0.06324687087736615 -5.572138539959671 -15.63710159255054 3.1678300345160038 0.028879737157606562 -0.018099420073154814 0.002378219321994537 -0.028229695136368037 4.709066702546833 0.0019022838616317426 12.421664369197988 -8.276230463601507 6.901876546045049 0.029522899342765536 46.36373040523036 -0.019709768688744404 -4.333865114423767 -14.79424898019649 -3.786237130464509 0.03239341867007393 -0.038887926970763605 0.031170658396562623 0.00584797861181078 -10.733319345251983 -0.04305684397469503 
0.004612893555244651 -0.048295615727671624 -0.0050457385836340666 0.0006334126164550979 0.022679137180486697 -0.042478618113309684 5.078045977589409 6.750545325210237 -1.883539931058393 -1.0692347521274443 4.293702336690328 0.3948210102780845 -0.6923593126868518 -0.41598444500762705 1.1449141983632685 0.30965986100381593 0.15738651829527928 -0.25018318259401395 -0.21990062065813734 14.013365681651957 -2.2154376948731724 -0.44688365631442845 -1.8838336689845596 -6.2344346338980134 0.47263861881178326 -19.66340641832528 -0.5409736376747822 -12.094899776899958 3.676351626668979 -17.71658685878078 73.9603803064757 -3.3042429931706283 14.456232770737994 12.54408771522102 -6.157400005913473 72.17859285576215 3.9657857907117076 -0.015341761793214566 -0.49467319286488376 4.5122859859226665 -0.0876589877171221 -1.6310829261877735 0.022131980637795753 -0.01725250582190876 -56.21055566067759 0.006527010494501944 -0.045258958772047976 -56.2782979749436 -38.73442722611928 -0.005536665645663675 0.00031044285862784175 0.018591199998504705 -0.04099450976435325 -0.00612166455131978 0.018088617536800477 0.005417334714003165 0.003165488888638919 -36.67320435062195 0.049695129365608805 -0.03809127391879645 0.014079691148320512 -0.048120353809364316 -0.018900860194140317 0.014079521328943509 0.029692707733309245 0.007184997292408916 -19.741370578023812 0.02652641492296301 0.026387802556641304 0.0030179694544353332 0.03140431525547572 0.026791981004701405 0.00816084584818933 -0.004388300390984842 -0.03984562284807411 24.011639418187016 0.01974652472857184 -0.0006931235602127068 28.899058991801674 0.028825753284556183 -0.007670649018955078 28.88893099029899 -0.005435709053035363 0.04269858214959997 11.201125400563534 2.4329488350574984 15.12633345454994 -70.24943398264703 7.6826906939227655 -18.45886562874541 -7.379605494398976 -8.974498928264133 -63.36916889896483 -6.628521114662839 1.4419918227547157 -2.7520808673890196 -0.42503845207015223 0.0554746962251171 -8.11625383350465 0.03667000647827026 0.029514999774377684 44.60139780731105 -0.007951572410274051 0.030749895138075262 44.60775501605874 12.497988938112334 0.0239692945229182 0.027752141828400172 -0.022910438331407428 -0.03402878489907494 -0.03713354581796212 0.018874365855093313 0.024382093801498556 -0.03322617702914286 11.125429196413142 0.015291922216408424 0.04931829009739918 0.025553149426064025 0.043544408315965885 -0.003499155829791853 -0.021229468889982183 -0.007714842082604948 -0.030628734014357506 4.755381538437222 0.03878070890776748 0.0489553862448925 0.0010942898621670782 0.03141641014761631 0.020541409847613025 0.006945675543293895 -0.020436955065320554 0.041631634609977236 -5.594481939409804 0.02509847592713453 -0.04485310502886268 -6.688404496975459 0.026723904742046948 -0.029525475187310773 -6.715105272485753 0.010714489889042954 -0.019554334442758513 -0.04018950835261273 0.045566718931599116 -0.007836483817280453 8.02086053311086 3.4880761447673083 -19.175530846253903 -0.009510674310267354 10.376242323468498 0.04323778733266864 -5.620986736102939 -15.691415646457017 3.196276485777568 -0.008389680447624854 -0.04208738005301522 0.005990760643679055 0.032768281176282714 4.691863238872663 -0.002047811676018815 12.494418469245767 -8.247515623952804 6.8925166690280255 -0.03439145636325201 46.34135236168507 -0.0009069685554027034 -4.334035552535968 -14.7231645789997 -3.829036849579036 -0.029856548022587304 -0.013204350271131746 0.012848276681135855 -0.044813702224464264 -10.76175174940801 0.004474253696011308 
